<svg id="visual" viewBox="0 0 960 540" width="960" height="540" xmlns="http://www.w3.org/2000/svg" xmlns:xlink="http://www.w3.org/1999/xlink" version="1.1"><rect x="0" y="0" width="960" height="540" fill="#002233"></rect><path d="M0 407L22.8 412.7C45.7 418.3 91.3 429.7 137 440C182.7 450.3 228.3 459.7 274 450.3C319.7 441 365.3 413 411.2 412.7C457 412.3 503 439.7 548.8 432.5C594.7 425.3 640.3 383.7 686 363C731.7 342.3 777.3 342.7 823 347.2C868.7 351.7 914.3 360.3 937.2 364.7L960 369L960 541L937.2 541C914.3 541 868.7 541 823 541C777.3 541 731.7 541 686 541C640.3 541 594.7 541 548.8 541C503 541 457 541 411.2 541C365.3 541 319.7 541 274 541C228.3 541 182.7 541 137 541C91.3 541 45.7 541 22.8 541L0 541Z" fill="#0066FF" stroke-linecap="round" stroke-linejoin="miter"></path></svg>